<mxfile host="65bd71144e">
    <diagram id="q5eZ1T037Wvvcwe7fL24" name="ページ1">
        <mxGraphModel dx="1468" dy="509" grid="1" gridSize="10" guides="1" tooltips="1" connect="1" arrows="1" fold="1" page="1" pageScale="1" pageWidth="827" pageHeight="1169" math="0" shadow="0">
            <root>
                <mxCell id="0"/>
                <mxCell id="1" parent="0"/>
                <mxCell id="5" value="&lt;h1&gt;naonao_blog/views.py&lt;/h1&gt;&lt;div style=&quot;background-color: rgb(24 , 24 , 24) ; font-family: &amp;#34;menlo&amp;#34; , &amp;#34;monaco&amp;#34; , &amp;#34;courier new&amp;#34; , monospace ; line-height: 18px ; color: rgb(212 , 212 , 212)&quot;&gt;&lt;div&gt;&lt;span style=&quot;color: #569cd6&quot;&gt;from&lt;/span&gt; django.shortcuts &lt;span style=&quot;color: #569cd6&quot;&gt;import&lt;/span&gt; render&lt;/div&gt;&lt;div&gt;&lt;span style=&quot;color: #569cd6&quot;&gt;1.from&lt;/span&gt; django.views.generic &lt;span style=&quot;color: #569cd6&quot;&gt;import&lt;/span&gt; ListView&lt;/div&gt;&lt;br&gt;&lt;div&gt;&lt;span style=&quot;color: #569cd6&quot;&gt;2.from&lt;/span&gt; naonao_blog.models &lt;span style=&quot;color: #569cd6&quot;&gt;import&lt;/span&gt; Post&lt;/div&gt;&lt;br&gt;&lt;br&gt;&lt;div&gt;&lt;span style=&quot;color: #569cd6&quot;&gt;3.class&lt;/span&gt; &lt;span style=&quot;color: #4ec9b0&quot;&gt;PostListView&lt;/span&gt;(ListView):&lt;/div&gt;&lt;div&gt;&amp;nbsp; model &lt;span style=&quot;color: #b4b4b4&quot;&gt;=&lt;/span&gt; Post&lt;/div&gt;&lt;div&gt;&amp;nbsp; template_name &lt;span style=&quot;color: #b4b4b4&quot;&gt;=&lt;/span&gt; &lt;span style=&quot;color: #d69d85&quot;&gt;&quot;blog/post_list.html&quot;&lt;/span&gt;&lt;/div&gt;&lt;div&gt;&amp;nbsp; context_object_name &lt;span style=&quot;color: #b4b4b4&quot;&gt;=&lt;/span&gt; &lt;span style=&quot;color: #d69d85&quot;&gt;'posts'&lt;/span&gt;&lt;/div&gt;&lt;/div&gt;" style="text;html=1;strokeColor=default;fillColor=none;spacing=5;spacingTop=-20;whiteSpace=wrap;overflow=hidden;rounded=0;imageAspect=0;allowArrows=0;connectable=0;movable=0;resizable=0;" parent="1" vertex="1">
                    <mxGeometry x="40" y="600" width="320" height="230" as="geometry"/>
                </mxCell>
                <mxCell id="6" value="&lt;h1&gt;config/urls.py&lt;/h1&gt;&lt;div style=&quot;color: rgb(212 , 212 , 212) ; background-color: rgb(24 , 24 , 24) ; font-family: &amp;#34;menlo&amp;#34; , &amp;#34;monaco&amp;#34; , &amp;#34;courier new&amp;#34; , monospace ; line-height: 18px&quot;&gt;&lt;span style=&quot;color: #569cd6&quot;&gt;from&lt;/span&gt; django.urls &lt;span style=&quot;color: #569cd6&quot;&gt;import&lt;/span&gt; path, 1.include&lt;/div&gt;" style="text;html=1;strokeColor=default;fillColor=none;spacing=5;spacingTop=-20;whiteSpace=wrap;overflow=hidden;rounded=0;" parent="1" vertex="1">
                    <mxGeometry x="-130" y="330" width="320" height="120" as="geometry"/>
                </mxCell>
                <mxCell id="14" style="edgeStyle=none;html=1;fontColor=#CC0000;startFill=0;endArrow=none;endFill=0;strokeWidth=3;entryX=-0.01;entryY=0.119;entryDx=0;entryDy=0;entryPerimeter=0;" parent="1" target="8" edge="1">
                    <mxGeometry relative="1" as="geometry">
                        <mxPoint x="270" y="540" as="targetPoint"/>
                        <mxPoint x="105" y="410" as="sourcePoint"/>
                        <Array as="points">
                            <mxPoint x="105" y="339"/>
                        </Array>
                    </mxGeometry>
                </mxCell>
                <mxCell id="7" value="&lt;div style=&quot;color: rgb(212 , 212 , 212) ; background-color: rgb(24 , 24 , 24) ; font-family: &amp;#34;menlo&amp;#34; , &amp;#34;monaco&amp;#34; , &amp;#34;courier new&amp;#34; , monospace ; font-weight: normal ; font-size: 12px ; line-height: 18px&quot;&gt;&lt;div&gt;&lt;span style=&quot;color: #d4d4d4&quot;&gt;2.path(&lt;/span&gt;&lt;span style=&quot;color: #d69d85&quot;&gt;''&lt;/span&gt;&lt;span style=&quot;color: #d4d4d4&quot;&gt;, include(&lt;/span&gt;&lt;span style=&quot;color: #d69d85&quot;&gt;'naonao_blog.urls'&lt;/span&gt;&lt;span style=&quot;color: #d4d4d4&quot;&gt;)),&lt;/span&gt;&lt;/div&gt;&lt;/div&gt;" style="text;whiteSpace=wrap;html=1;rotatable=1;resizable=0;" parent="1" vertex="1">
                    <mxGeometry x="-120" y="400" width="300" height="30" as="geometry"/>
                </mxCell>
                <mxCell id="8" value="&lt;h1&gt;naonao_blog/urls.py&lt;/h1&gt;&lt;div style=&quot;color: rgb(212 , 212 , 212) ; background-color: rgb(24 , 24 , 24) ; font-family: &amp;#34;menlo&amp;#34; , &amp;#34;monaco&amp;#34; , &amp;#34;courier new&amp;#34; , monospace ; line-height: 18px&quot;&gt;&lt;div style=&quot;font-family: &amp;#34;menlo&amp;#34; , &amp;#34;monaco&amp;#34; , &amp;#34;courier new&amp;#34; , monospace ; line-height: 18px&quot;&gt;&lt;div&gt;&lt;span style=&quot;color: #569cd6&quot;&gt;1.from&lt;/span&gt; django.urls &lt;span style=&quot;color: #569cd6&quot;&gt;import&lt;/span&gt; path&lt;/div&gt;&lt;div&gt;&lt;span style=&quot;color: #569cd6&quot;&gt;2.from&lt;/span&gt; naonao_blog.views &lt;span style=&quot;color: #569cd6&quot;&gt;import&lt;/span&gt; PostListView&lt;/div&gt;&lt;br&gt;&lt;div&gt;3.urlpatterns &lt;span style=&quot;color: #b4b4b4&quot;&gt;=&lt;/span&gt; [&lt;/div&gt;&lt;div&gt;    path(&lt;span style=&quot;color: #d69d85&quot;&gt;&quot;&quot;&lt;/span&gt;, PostListView.as_view(), &lt;span style=&quot;color: #7f7f7f&quot;&gt;name&lt;/span&gt;&lt;span style=&quot;color: #b4b4b4&quot;&gt;=&lt;/span&gt;&lt;span style=&quot;color: #d69d85&quot;&gt;&quot;post-list&quot;&lt;/span&gt;),&lt;/div&gt;&lt;div&gt;]&lt;/div&gt;&lt;/div&gt;&lt;/div&gt;" style="text;html=1;strokeColor=default;fillColor=none;spacing=5;spacingTop=-20;whiteSpace=wrap;overflow=hidden;rounded=0;recursiveResize=0;rotatable=0;resizable=0;cloneable=0;deletable=0;pointerEvents=0;movable=0;editable=0;" parent="1" vertex="1">
                    <mxGeometry x="350" y="320" width="380" height="160" as="geometry"/>
                </mxCell>
                <mxCell id="9" value="&lt;h1&gt;templates/blog/post_list.html&lt;/h1&gt;&lt;div style=&quot;background-color: rgb(24 , 24 , 24) ; font-family: &amp;#34;menlo&amp;#34; , &amp;#34;monaco&amp;#34; , &amp;#34;courier new&amp;#34; , monospace ; line-height: 18px ; color: rgb(212 , 212 , 212)&quot;&gt;&lt;span style=&quot;font-family: &amp;#34;menlo&amp;#34; , &amp;#34;monaco&amp;#34; , &amp;#34;courier new&amp;#34; , monospace&quot;&gt;{% &lt;/span&gt;&lt;span style=&quot;font-family: &amp;#34;menlo&amp;#34; , &amp;#34;monaco&amp;#34; , &amp;#34;courier new&amp;#34; , monospace ; color: rgb(86 , 156 , 214)&quot;&gt;for&lt;/span&gt;&lt;span style=&quot;font-family: &amp;#34;menlo&amp;#34; , &amp;#34;monaco&amp;#34; , &amp;#34;courier new&amp;#34; , monospace&quot;&gt; &lt;/span&gt;&lt;span style=&quot;font-family: &amp;#34;menlo&amp;#34; , &amp;#34;monaco&amp;#34; , &amp;#34;courier new&amp;#34; , monospace ; color: rgb(200 , 200 , 200)&quot;&gt;post&lt;/span&gt;&lt;span style=&quot;font-family: &amp;#34;menlo&amp;#34; , &amp;#34;monaco&amp;#34; , &amp;#34;courier new&amp;#34; , monospace&quot;&gt; &lt;/span&gt;&lt;span style=&quot;font-family: &amp;#34;menlo&amp;#34; , &amp;#34;monaco&amp;#34; , &amp;#34;courier new&amp;#34; , monospace ; color: rgb(86 , 156 , 214)&quot;&gt;in&lt;/span&gt;&lt;span style=&quot;font-family: &amp;#34;menlo&amp;#34; , &amp;#34;monaco&amp;#34; , &amp;#34;courier new&amp;#34; , monospace&quot;&gt; &lt;/span&gt;&lt;span style=&quot;font-family: &amp;#34;menlo&amp;#34; , &amp;#34;monaco&amp;#34; , &amp;#34;courier new&amp;#34; , monospace ; color: rgb(200 , 200 , 200)&quot;&gt;posts&lt;/span&gt;&lt;span style=&quot;font-family: &amp;#34;menlo&amp;#34; , &amp;#34;monaco&amp;#34; , &amp;#34;courier new&amp;#34; , monospace&quot;&gt; %}&lt;/span&gt;&lt;span style=&quot;color: #569cd6&quot;&gt;&lt;br&gt;&lt;/span&gt;&lt;/div&gt;&lt;div style=&quot;color: rgb(212 , 212 , 212) ; background-color: rgb(24 , 24 , 24) ; font-family: &amp;#34;menlo&amp;#34; , &amp;#34;monaco&amp;#34; , &amp;#34;courier new&amp;#34; , monospace ; line-height: 18px&quot;&gt;&lt;div&gt;    &lt;span style=&quot;color: #808080&quot;&gt;&amp;lt;&lt;/span&gt;&lt;span style=&quot;color: #569cd6&quot;&gt;h1&lt;/span&gt;&lt;span style=&quot;color: #808080&quot;&gt;&amp;gt;&lt;/span&gt;{{ &lt;span style=&quot;color: #c8c8c8&quot;&gt;post&lt;/span&gt;.&lt;span style=&quot;color: #c8c8c8&quot;&gt;title&lt;/span&gt; }}&lt;span style=&quot;color: #808080&quot;&gt;&amp;lt;/&lt;/span&gt;&lt;span style=&quot;color: #569cd6&quot;&gt;h1&lt;/span&gt;&lt;span style=&quot;color: #808080&quot;&gt;&amp;gt;&lt;/span&gt;&lt;/div&gt;&lt;div&gt;    &lt;span style=&quot;color: #808080&quot;&gt;&amp;lt;&lt;/span&gt;&lt;span style=&quot;color: #569cd6&quot;&gt;h2&lt;/span&gt;&lt;span style=&quot;color: #808080&quot;&gt;&amp;gt;&lt;/span&gt;{{ &lt;span style=&quot;color: #c8c8c8&quot;&gt;post&lt;/span&gt;.&lt;span style=&quot;color: #c8c8c8&quot;&gt;content&lt;/span&gt; | &lt;span style=&quot;color: #c8c8c8&quot;&gt;truncatechars&lt;/span&gt;:20}}&lt;span style=&quot;color: #808080&quot;&gt;&amp;lt;/&lt;/span&gt;&lt;span style=&quot;color: #569cd6&quot;&gt;h2&lt;/span&gt;&lt;span style=&quot;color: #808080&quot;&gt;&amp;gt;&lt;/span&gt;&lt;/div&gt;&lt;div&gt;    &lt;span style=&quot;color: #808080&quot;&gt;&amp;lt;&lt;/span&gt;&lt;span style=&quot;color: #569cd6&quot;&gt;p&lt;/span&gt;&lt;span style=&quot;color: #808080&quot;&gt;&amp;gt;&lt;/span&gt;{{ &lt;span style=&quot;color: #c8c8c8&quot;&gt;post&lt;/span&gt;.&lt;span style=&quot;color: #c8c8c8&quot;&gt;created_at&lt;/span&gt; }}&lt;/div&gt;&lt;div&gt;        |&lt;/div&gt;&lt;div&gt;        {{ &lt;span style=&quot;color: #c8c8c8&quot;&gt;post&lt;/span&gt;.&lt;span style=&quot;color: #c8c8c8&quot;&gt;updated_at&lt;/span&gt; }}&lt;span style=&quot;color: #808080&quot;&gt;&amp;lt;/&lt;/span&gt;&lt;span style=&quot;color: #569cd6&quot;&gt;p&lt;/span&gt;&lt;span style=&quot;color: #808080&quot;&gt;&amp;gt;&lt;/span&gt;&lt;/div&gt;&lt;div&gt;{% &lt;span style=&quot;color: #569cd6&quot;&gt;endfor&lt;/span&gt; %}&lt;/div&gt;&lt;/div&gt;" style="text;html=1;strokeColor=default;fillColor=none;spacing=5;spacingTop=-20;whiteSpace=wrap;overflow=hidden;rounded=0;" parent="1" vertex="1">
                    <mxGeometry x="640" y="625" width="340" height="180" as="geometry"/>
                </mxCell>
                <mxCell id="10" style="edgeStyle=none;html=1;entryX=0.342;entryY=0.813;entryDx=0;entryDy=0;fontColor=#CC0000;entryPerimeter=0;startFill=0;endFill=0;anchorPointDirection=0;strokeWidth=3;endArrow=none;" parent="1" target="8" edge="1">
                    <mxGeometry relative="1" as="geometry">
                        <mxPoint x="160" y="760" as="sourcePoint"/>
                        <Array as="points">
                            <mxPoint x="480" y="760"/>
                        </Array>
                    </mxGeometry>
                </mxCell>
                <mxCell id="13" style="edgeStyle=none;html=1;fontColor=#CC0000;startFill=0;endFill=0;anchorPointDirection=0;strokeWidth=3;endArrow=none;" parent="1" edge="1">
                    <mxGeometry relative="1" as="geometry">
                        <mxPoint x="480" y="760" as="sourcePoint"/>
                        <mxPoint x="600" y="410" as="targetPoint"/>
                        <Array as="points">
                            <mxPoint x="600" y="760"/>
                        </Array>
                    </mxGeometry>
                </mxCell>
                <mxCell id="15" style="edgeStyle=none;html=1;fontColor=#CC0000;startFill=0;endFill=0;anchorPointDirection=0;strokeWidth=3;endArrow=none;" parent="1" edge="1">
                    <mxGeometry relative="1" as="geometry">
                        <mxPoint x="320" y="805" as="sourcePoint"/>
                        <mxPoint x="630" y="640" as="targetPoint"/>
                        <Array as="points">
                            <mxPoint x="540" y="805"/>
                            <mxPoint x="540" y="640"/>
                        </Array>
                    </mxGeometry>
                </mxCell>
                <mxCell id="16" style="edgeStyle=none;html=1;fontColor=#CC0000;startFill=0;endFill=0;anchorPointDirection=0;strokeWidth=3;endArrow=none;deletable=0;cloneable=0;" edge="1" parent="1">
                    <mxGeometry relative="1" as="geometry">
                        <mxPoint x="750" y="540" as="sourcePoint"/>
                        <mxPoint x="661" y="459" as="targetPoint"/>
                        <Array as="points">
                            <mxPoint x="661" y="540"/>
                        </Array>
                    </mxGeometry>
                </mxCell>
                <mxCell id="18" value="templatesでpage遷移するときに使用する" style="rounded=1;whiteSpace=wrap;html=1;" vertex="1" parent="1">
                    <mxGeometry x="750" y="510" width="120" height="60" as="geometry"/>
                </mxCell>
                <mxCell id="19" value="&lt;meta charset=&quot;utf-8&quot;&gt;&lt;div style=&quot;color: rgb(212, 212, 212); background-color: rgb(24, 24, 24); font-family: menlo, monaco, &amp;quot;courier new&amp;quot;, monospace; font-weight: normal; font-size: 12px; line-height: 18px;&quot;&gt;&lt;div&gt;&lt;span style=&quot;color: #808080&quot;&gt;&amp;lt;&lt;/span&gt;&lt;span style=&quot;color: #569cd6&quot;&gt;h1&lt;/span&gt;&lt;span style=&quot;color: #808080&quot;&gt;&amp;gt;&amp;lt;&lt;/span&gt;&lt;span style=&quot;color: #569cd6&quot;&gt;a&lt;/span&gt;&lt;span style=&quot;color: #d4d4d4&quot;&gt; &lt;/span&gt;&lt;span style=&quot;color: #9cdcfe&quot;&gt;href&lt;/span&gt;&lt;span style=&quot;color: #d4d4d4&quot;&gt;=&lt;/span&gt;&lt;span style=&quot;color: #d69d85&quot;&gt;&quot;{% url 'post-detail' post.pk %}&quot;&lt;/span&gt;&lt;span style=&quot;color: #808080&quot;&gt;&amp;gt;&lt;/span&gt;&lt;span style=&quot;color: #d4d4d4&quot;&gt;{{ &lt;/span&gt;&lt;span style=&quot;color: #c8c8c8&quot;&gt;post&lt;/span&gt;&lt;span style=&quot;color: #d4d4d4&quot;&gt;.&lt;/span&gt;&lt;span style=&quot;color: #c8c8c8&quot;&gt;title&lt;/span&gt;&lt;span style=&quot;color: #d4d4d4&quot;&gt; }}&lt;/span&gt;&lt;span style=&quot;color: #808080&quot;&gt;&amp;lt;/&lt;/span&gt;&lt;span style=&quot;color: #569cd6&quot;&gt;a&lt;/span&gt;&lt;span style=&quot;color: #808080&quot;&gt;&amp;gt;&amp;lt;/&lt;/span&gt;&lt;span style=&quot;color: #569cd6&quot;&gt;h1&lt;/span&gt;&lt;span style=&quot;color: #808080&quot;&gt;&amp;gt;&lt;/span&gt;&lt;/div&gt;&lt;/div&gt;" style="text;whiteSpace=wrap;html=1;" vertex="1" parent="1">
                    <mxGeometry x="760" y="460" width="550" height="30" as="geometry"/>
                </mxCell>
                <mxCell id="20" value="example)&lt;br&gt;template内の記述" style="rounded=1;whiteSpace=wrap;html=1;" vertex="1" parent="1">
                    <mxGeometry x="760" y="400" width="120" height="60" as="geometry"/>
                </mxCell>
                <mxCell id="21" value="" style="rounded=1;whiteSpace=wrap;html=1;fillColor=none;" vertex="1" parent="1">
                    <mxGeometry x="900" y="460" width="100" height="30" as="geometry"/>
                </mxCell>
                <mxCell id="22" value="第一引数:urls.pyのname=&quot; &quot;&lt;br&gt;第二引数:プライマリキー" style="rounded=1;whiteSpace=wrap;html=1;" vertex="1" parent="1">
                    <mxGeometry x="975" y="490" width="255" height="60" as="geometry"/>
                </mxCell>
                <mxCell id="23" value="&lt;meta charset=&quot;utf-8&quot;&gt;&lt;div style=&quot;color: rgb(212, 212, 212); background-color: rgb(24, 24, 24); font-family: menlo, monaco, &amp;quot;courier new&amp;quot;, monospace; font-weight: normal; font-size: 12px; line-height: 18px;&quot;&gt;&lt;div&gt;&lt;span style=&quot;color: #d4d4d4&quot;&gt;path(&lt;/span&gt;&lt;span style=&quot;color: #d69d85&quot;&gt;&quot;detail/&amp;lt;int:pk&amp;gt;/&quot;&lt;/span&gt;&lt;span style=&quot;color: #d4d4d4&quot;&gt;, PostDetailView.as_view(), &lt;/span&gt;&lt;span style=&quot;color: #7f7f7f&quot;&gt;name&lt;/span&gt;&lt;span style=&quot;color: #b4b4b4&quot;&gt;=&lt;/span&gt;&lt;span style=&quot;color: #d69d85&quot;&gt;&quot;post-detail&quot;&lt;/span&gt;&lt;span style=&quot;color: #d4d4d4&quot;&gt;),&lt;/span&gt;&lt;/div&gt;&lt;/div&gt;" style="text;whiteSpace=wrap;html=1;" vertex="1" parent="1">
                    <mxGeometry x="870" y="350" width="550" height="30" as="geometry"/>
                </mxCell>
                <mxCell id="24" value="example)&lt;br&gt;urls.py内の記述" style="rounded=1;whiteSpace=wrap;html=1;" vertex="1" parent="1">
                    <mxGeometry x="830" y="290" width="120" height="60" as="geometry"/>
                </mxCell>
            </root>
        </mxGraphModel>
    </diagram>
</mxfile>